<svg width="500" height="500" viewBox="0 0 500 500" fill="none" xmlns="http://www.w3.org/2000/svg">
<g clip-path="url(#clip0_299_694)">
<rect width="500" height="500" fill="#1D242C"/>
<path d="M105.472 332.544V167.777L156.17 186.788V305.467L252.957 368.263V424.146L105.472 332.544Z" fill="#14C725"/>
<path d="M161.932 301.491V200.039L193.222 211.745V284.819L252.957 326.783V360.198L161.932 301.491Z" fill="#73FF23"/>
<path d="M343.981 301.491V200.039L312.691 211.745V284.819L252.956 326.783V360.198L343.981 301.491Z" fill="#14C725"/>
<path d="M254.11 268.704L199.955 234.071L218.571 224.236L254.11 248.991V268.704Z" fill="#73FF23"/>
<path d="M254.109 268.704L305.959 234.071L288.136 224.236L254.109 248.991V268.704Z" fill="#29EF01"/>
<path d="M401.018 332.544V167.777L350.32 186.788V305.467L252.957 368.263V424.146L401.018 332.544Z" fill="#29EF01"/>
<path d="M251.804 129.753L156.17 186.788L105.472 167.777L251.804 76.175L401.017 167.777L350.319 186.788L251.804 129.753Z" fill="#73FF24"/>
</g>
<defs>
<clipPath id="clip0_299_694">
<rect width="500" height="500" fill="white"/>
</clipPath>
</defs>
</svg>
